<?xml version="1.0" encoding="UTF-8"?>
<svg id="Layer_2" data-name="Layer 2" xmlns="http://www.w3.org/2000/svg" xmlns:xlink="http://www.w3.org/1999/xlink" viewBox="0 0 359.82 81.9">
  <defs>
    <style>
      .cls-1 {
        fill: url(#linear-gradient-2);
      }

      .cls-2 {
        fill: #26140d;
      }

      .cls-3 {
        fill: url(#linear-gradient);
      }
    </style>
    <linearGradient id="linear-gradient" x1="106.2" y1="1.7" x2="64.37" y2="66.13" gradientUnits="userSpaceOnUse">
      <stop offset="0" stop-color="#f39e1e"/>
      <stop offset=".18" stop-color="#f08b1f"/>
      <stop offset=".5" stop-color="#eb7022"/>
      <stop offset=".78" stop-color="#e85f23"/>
      <stop offset="1" stop-color="#e85a24"/>
    </linearGradient>
    <linearGradient id="linear-gradient-2" x1="50.23" y1="-3.36" x2="7.79" y2="62.02" xlink:href="#linear-gradient"/>
  </defs>
  <g id="Layer_3" data-name="Layer 3">
    <g>
      <g>
        <path class="cls-3" d="m109.87,12C102.27,4.04,93.02,0,82.39,0h-23.95c5.01,0,13.25,6.76,13.25,15.11h10.75c6.5,0,11.92,2.47,16.56,7.56,4.64,5.09,7,11.28,7,18.41,0,7.49-2.35,13.86-7,18.95-4.64,5.09-10.06,7.56-16.56,7.56h-12.65c-2.09,0-3.79-1.7-3.79-3.79v-24.74c0-7.96-6.45-14.41-14.41-14.41h-.7v42.14c0,8.34,6.76,15.11,15.11,15.11h16.39c10.73,0,20-4.04,27.55-12.01,7.51-7.92,11.31-17.75,11.31-29.21s-3.83-20.76-11.38-28.68Z"/>
        <path class="cls-1" d="m65.99,15.05v.06h-23.05v66.79h-.06c-8.31,0-15.05-6.74-15.05-15.05V15.11h-12.78C6.74,15.11,0,8.37,0,.06v-.06h50.95c8.31,0,15.04,6.74,15.04,15.05Z"/>
      </g>
      <g>
        <g>
          <path class="cls-2" d="m148.31,22.2h-6.09c-4.21,0-7.61-3.41-7.61-7.61v-3.18h32.35c4.21,0,7.61,3.41,7.61,7.61v3.18h-13.64v37.34h-5.01c-4.21,0-7.61-3.41-7.61-7.61v-29.72Z"/>
          <path class="cls-2" d="m219.9,56.63v2.91h-28.21c-4.21,0-7.61-3.41-7.61-7.61V19.02c0-4.21,3.41-7.61,7.61-7.61h27.38v2.91c0,4.21-3.41,7.61-7.61,7.61h-14.89v8.11h19.82v10.18h-19.82v8.8h15.72c4.21,0,7.61,3.41,7.61,7.61Z"/>
          <path class="cls-2" d="m232.52,58.68c-2.68-1.21-4.87-2.97-6.57-5.26l6.89-8.8c2.38,3.35,4.95,5.02,7.71,5.02,1.83,0,3.22-.59,4.18-1.79.96-1.19,1.44-2.93,1.44-5.23v-20.7h-7.81c-4.21,0-7.61-3.41-7.61-7.61v-2.91h20.31c4.21,0,7.61,3.41,7.61,7.61v22.78c0,6.23-1.46,10.91-4.37,14.03-2.91,3.12-7.19,4.68-12.84,4.68-3.27,0-6.25-.61-8.92-1.82Z"/>
          <path class="cls-2" d="m300.92,50.19h-18.87l-1.65,4.41c-1.11,2.97-3.96,4.94-7.13,4.94h-7.6l17.76-43.4c1.17-2.86,3.96-4.73,7.05-4.73h2.22c3.09,0,5.87,1.87,7.04,4.72l17.82,43.41h-7.86c-3.17,0-6.02-1.97-7.13-4.94l-1.65-4.41Zm-3.7-10.04l-5.74-15.4-5.74,15.4h11.48Z"/>
          <path class="cls-2" d="m325.91,11.41h5.01c4.21,0,7.61,3.41,7.61,7.61v29.72h13.68c4.21,0,7.61,3.41,7.61,7.61v3.18h-33.91V11.41Z"/>
        </g>
        <g>
          <path class="cls-2" d="m287.9,68.07c0-1.92,1.56-3.48,3.48-3.48h1.64c1.18,0,2.23.24,3.15.72.92.48,1.63,1.16,2.13,2.03s.76,1.9.76,3.08-.25,2.2-.76,3.08-1.22,1.56-2.13,2.03c-.92.48-1.97.72-3.15.72h-1.64c-1.92,0-3.48-1.56-3.48-3.48v-4.71Zm4.99,5.55c.93,0,1.67-.28,2.23-.85s.84-1.35.84-2.35-.28-1.78-.84-2.35c-.56-.57-1.31-.85-2.23-.85h-1.93v6.4h1.93Z"/>
          <path class="cls-2" d="m301.82,64.6h0c1.69,0,3.06,1.37,3.06,3.06v8.6h0c-1.69,0-3.06-1.37-3.06-3.06v-8.6Z"/>
          <path class="cls-2" d="m315.46,70.18h2.7v3.04c0,1.32-.85,2.48-2.11,2.89h-.02c-.8.26-1.61.39-2.41.39-1.13,0-2.15-.26-3.06-.77-.91-.52-1.62-1.24-2.13-2.16-.52-.92-.77-1.97-.77-3.13s.26-2.21.77-3.13c.51-.92,1.23-1.64,2.15-2.16.92-.52,1.95-.77,3.1-.77,1.01,0,1.92.18,2.72.55s1.47.89,2.01,1.58l-.33.32c-.78.76-1.95.99-2.94.55-.4-.18-.84-.27-1.3-.27-.93,0-1.67.3-2.24.91s-.85,1.41-.85,2.42c0,.64.13,1.22.39,1.72.26.51.62.9,1.08,1.18.46.28.99.42,1.59.42s1.14-.13,1.65-.38v-3.2Z"/>
          <path class="cls-2" d="m321.27,64.6h0c1.69,0,3.06,1.37,3.06,3.06v8.6h0c-1.69,0-3.06-1.37-3.06-3.06v-8.6Z"/>
          <path class="cls-2" d="m329.97,67.21h-.7c-1.44,0-2.62-1.17-2.62-2.62h0s7.07,0,7.07,0c1.44,0,2.62,1.17,2.62,2.62h0s-3.31,0-3.31,0v9.05h-.44c-1.44,0-2.62-1.17-2.62-2.62v-6.43Z"/>
          <path class="cls-2" d="m345.33,73.99h-4.57l-.3.81c-.33.88-1.17,1.46-2.1,1.46h-1.56l4.2-10.27c.35-.84,1.17-1.39,2.08-1.39h0c.91,0,1.73.55,2.08,1.39l4.22,10.27h-1.63c-.94,0-1.77-.58-2.1-1.46l-.3-.81Zm-.9-2.43l-1.39-3.73-1.39,3.73h2.78Z"/>
          <path class="cls-2" d="m351.39,64.6h.44c1.44,0,2.62,1.17,2.62,2.62v6.43h2.54c1.44,0,2.62,1.17,2.62,2.62h0s-8.22,0-8.22,0v-11.66Z"/>
        </g>
      </g>
    </g>
  </g>
</svg>