<svg xmlns="http://www.w3.org/2000/svg" xmlns:xlink="http://www.w3.org/1999/xlink" id="Layer_2" data-name="Layer 2" viewBox="0 0 373.44 98.81">
  <defs>
    <style>
      .cls-1 {
        fill: #3d2c2a;
      }

      .cls-2 {
        fill: url(#linear-gradient);
      }

      .cls-3 {
        fill: #240f05;
      }
    </style>
    <linearGradient id="linear-gradient" x1="91.25" y1="-.26" x2="32.39" y2="90.44" gradientUnits="userSpaceOnUse">
      <stop offset="0" stop-color="#f59e0b"/>
      <stop offset=".19" stop-color="#f1890b"/>
      <stop offset=".51" stop-color="#ed6e0b"/>
      <stop offset=".79" stop-color="#ea5d0b"/>
      <stop offset="1" stop-color="#ea580c"/>
    </linearGradient>
  </defs>
  <g id="Layer_2-2" data-name="Layer 2">
    <path class="cls-2" d="m93.09,10.65c18.19,15.77,20.14,43.3,4.38,61.49l-4.69,5.41c-.6.7-1.56.97-2.44.7-17.82-5.42-35.63-10.85-53.45-16.27-.88-.27-1.84,0-2.44.7l-5.09,5.87c-1.11,1.28-.53,3.27,1.08,3.76l49.47,15.06c1.62.49,2.19,2.48,1.08,3.76l-5.96,6.88c-.6.7-1.56.97-2.44.7l-53.45-16.27c-.88-.27-1.84,0-2.44.7l-12.16,14.03h0c-5.46-4.61-6.09-12.8-1.41-18.2l39.43-45.48c4.72-5.44,12.93-6.07,18.42-1.42h0s-13.88,16.01-13.88,16.01c-1.11,1.28-.53,3.27,1.08,3.76l39.62,12.06c.94.29,1.96-.05,2.56-.84,10.17-13.46,8.29-32.7-4.65-43.91-13.42-11.64-33.7-10.27-45.43,3l-8.71,10.05c-4.06,4.69-11.16,5.19-15.84,1.13h0s15.86-18.29,15.86-18.29c.07-.08.14-.16.21-.24,15.79-17.96,43.17-19.85,61.28-4.15Z"/>
    <path class="cls-1" d="m54.47,49.4h-.41.41Z"/>
    <g>
      <g>
        <path class="cls-3" d="m141.56,30.1h-16.41l.81-3.99c.95-4.65,5.04-7.99,9.79-7.99h27.47c6.32,0,11.05,5.79,9.79,11.98h0s-16.34,0-16.34,0l-7.95,39.62c-.21,1.07-1.15,1.83-2.24,1.83h-13.24l8.32-41.45Z"/>
        <path class="cls-3" d="m194.37,29.79l-1.76,9.01h20.97c1.44,0,2.52,1.31,2.24,2.72l-1.32,6.73c-.21,1.07-1.15,1.84-2.24,1.84h-21.94l-1.91,9.77h25.2c1.45,0,2.53,1.33,2.24,2.75l-1.49,7.11c-.22,1.06-1.15,1.82-2.24,1.82h-38.18c-1.44,0-2.52-1.32-2.24-2.73l9.77-48.87c.21-1.07,1.15-1.84,2.24-1.84h37.17c1.44,0,2.53,1.32,2.24,2.74l-1.44,7.11c-.22,1.06-1.15,1.83-2.24,1.83h-25.08Z"/>
        <path class="cls-3" d="m221.74,64.45l9.77-9.31c2.34,3.61,5.27,5.42,8.78,5.42,4.17,0,6.74-2.39,7.71-7.18l4.66-23.59h-15.68c-1.44,0-2.53-1.32-2.24-2.74l1.44-7.11c.22-1.06,1.15-1.83,2.24-1.83h28.78c1.44,0,2.52,1.32,2.24,2.74l-6.39,31.69c-1.43,7.18-4,12.32-7.71,15.42-3.72,3.1-8.81,4.66-15.27,4.66-8.55,0-14.66-2.72-18.32-8.17Z"/>
        <path class="cls-3" d="m308.02,61.17h-22.75l-5.52,9.27c-.41.69-1.16,1.12-1.96,1.12h-10.48c-1.81,0-2.9-2-1.92-3.52l31.34-48.87c.42-.65,1.14-1.05,1.92-1.05h11.84c1.05,0,1.97.72,2.22,1.75l11.8,48.87c.35,1.44-.74,2.82-2.22,2.82h-10.28c-1.08,0-2.02-.76-2.24-1.82l-1.76-8.56Zm-2.29-11.15l-3.59-17.33-10.23,17.33h13.82Z"/>
        <path class="cls-3" d="m343.46,18.12h10.46c1.44,0,2.52,1.32,2.24,2.73l-7.7,38.72h22.7c1.44,0,2.53,1.32,2.24,2.74l-1.51,7.42c-.22,1.06-1.15,1.83-2.24,1.83h-35.96c-1.44,0-2.52-1.32-2.24-2.73l9.77-48.87c.21-1.07,1.15-1.84,2.24-1.84Z"/>
      </g>
      <g>
        <path class="cls-3" d="m292.55,76.23h6.07c1.44,0,2.68.24,3.74.71,1.05.47,1.86,1.15,2.43,2.04.57.89.85,1.93.85,3.13,0,1.63-.37,3.05-1.11,4.27s-1.77,2.17-3.09,2.84c-1.32.67-2.83,1-4.53,1h-7.15l2.8-13.98Zm4.47,10.83c.96,0,1.79-.2,2.49-.61.7-.41,1.23-.97,1.59-1.68.36-.71.54-1.52.54-2.43s-.29-1.67-.88-2.19c-.59-.51-1.45-.77-2.58-.77h-2.32l-1.52,7.67h2.68Z"/>
        <path class="cls-3" d="m309.73,79.39h3.77l-2.16,10.83h-3.78l2.16-10.83Zm.84-1.74c-.4-.36-.6-.81-.6-1.34,0-.63.22-1.14.67-1.55.45-.41,1.03-.61,1.77-.61.67,0,1.2.17,1.6.51s.6.78.6,1.31c0,.65-.23,1.19-.68,1.6-.45.41-1.05.62-1.78.62-.65,0-1.18-.18-1.58-.54Z"/>
        <path class="cls-3" d="m328.76,79.39l-1.76,8.83c-.41,2.09-1.22,3.62-2.42,4.59-1.2.97-2.78,1.46-4.73,1.46-2.18,0-3.94-.47-5.27-1.4l1.7-2.64c.44.35.99.62,1.64.82.65.2,1.33.3,2.04.3.95,0,1.66-.2,2.15-.61.49-.41.81-1.02.97-1.83l.08-.36c-.81.73-1.82,1.1-3.02,1.1-.87,0-1.66-.19-2.38-.56-.72-.37-1.29-.91-1.72-1.61-.43-.7-.64-1.51-.64-2.45,0-1.07.26-2.04.78-2.94.52-.89,1.23-1.6,2.14-2.12.91-.52,1.91-.78,3.02-.78.83,0,1.54.15,2.15.46.61.31,1.05.79,1.33,1.44l.34-1.72h3.62Zm-5.66,6.51c.47-.48.71-1.1.71-1.88,0-.53-.18-.96-.54-1.29s-.85-.49-1.48-.49c-.76,0-1.38.24-1.86.73-.48.49-.72,1.12-.72,1.89,0,.53.18.96.54,1.28.36.32.86.48,1.5.48.76,0,1.38-.24,1.85-.72Z"/>
        <path class="cls-3" d="m332.52,79.39h3.78l-2.16,10.83h-3.77l2.16-10.83Zm.84-1.74c-.4-.36-.6-.81-.6-1.34,0-.63.22-1.14.67-1.55.45-.41,1.04-.61,1.77-.61.67,0,1.2.17,1.6.51.4.34.6.78.6,1.31,0,.65-.23,1.19-.68,1.6-.45.41-1.05.62-1.78.62-.65,0-1.18-.18-1.58-.54Z"/>
        <path class="cls-3" d="m342.9,86.18c-.03.19-.04.31-.04.36,0,.61.33.92,1,.92.36,0,.74-.11,1.14-.32l.48,2.62c-.75.43-1.68.64-2.82.64s-2.01-.28-2.67-.84c-.66-.56-.99-1.34-.99-2.34,0-.39.03-.73.1-1.02l.72-3.58h-1.6l.58-2.84h1.58l.56-2.82h3.79l-.56,2.82h2.46l-.56,2.84h-2.46l-.72,3.56Z"/>
        <path class="cls-3" d="m361.6,79.39l-2.16,10.83h-3.59l.22-1.02c-.87.8-1.91,1.2-3.14,1.2-.8,0-1.55-.2-2.25-.59-.7-.39-1.26-.96-1.69-1.71-.43-.75-.64-1.62-.64-2.64,0-1.17.26-2.23.79-3.19.53-.95,1.24-1.7,2.14-2.25.9-.55,1.88-.82,2.95-.82,1.57,0,2.68.49,3.32,1.48l.26-1.3h3.8Zm-5.49,7.11c.48-.56.72-1.28.72-2.18,0-.64-.18-1.15-.55-1.52s-.87-.56-1.51-.56c-.76,0-1.38.28-1.86.84-.48.56-.72,1.29-.72,2.2,0,.64.18,1.14.55,1.51.37.37.87.55,1.51.55.76,0,1.38-.28,1.86-.84Z"/>
        <path class="cls-3" d="m366.16,75.39h3.79l-2.96,14.82h-3.79l2.96-14.82Z"/>
      </g>
    </g>
  </g>
</svg>